<svg id="svg" xmlns="http://www.w3.org/2000/svg" xmlns:xlink="http://www.w3.org/1999/xlink" width="400" height="88.30588235294117" viewBox="0, 0, 400,88.30588235294117" version="1.1"><g id="svgg"><path id="path0" d="M120.255 1.161 C 119.640 1.840,117.104 6.930,117.257 7.178 C 117.997 8.376,123.833 3.435,123.833 1.611 C 123.833 0.800,120.914 0.433,120.255 1.161 M89.312 8.165 C 84.237 9.461,81.100 14.601,81.121 21.583 C 81.143 29.227,84.744 33.833,90.697 33.833 C 95.417 33.833,98.083 31.301,98.083 26.817 C 98.083 23.711,97.688 23.097,96.852 24.903 C 93.994 31.077,86.000 27.860,86.000 20.536 C 86.000 15.961,88.419 12.667,91.780 12.667 C 93.445 12.667,93.866 12.943,94.318 14.333 C 94.592 15.177,94.659 15.254,95.167 15.304 C 98.133 15.595,99.321 11.469,96.838 9.504 C 95.304 8.290,91.484 7.611,89.312 8.165 M161.750 8.161 C 151.297 10.467,150.430 30.999,160.677 33.560 C 166.555 35.029,171.426 31.145,170.517 25.716 C 170.149 23.522,169.944 23.381,169.266 24.857 C 166.679 30.493,159.396 28.475,158.503 21.875 C 158.089 18.811,159.120 15.434,160.962 13.816 C 163.004 12.023,166.152 12.246,166.680 14.221 C 167.213 16.214,169.922 15.447,170.527 13.132 C 171.386 9.845,166.545 7.103,161.750 8.161 M180.503 8.530 C 177.406 10.368,174.102 15.226,172.818 19.833 C 171.727 23.750,171.676 30.433,172.723 32.500 L 173.103 33.250 175.968 33.296 C 179.240 33.348,179.085 33.444,178.315 31.833 C 176.838 28.743,176.636 27.339,177.492 26.095 C 178.903 24.044,184.538 23.320,185.740 25.036 C 186.167 25.646,185.794 27.995,184.982 29.799 C 184.788 30.230,184.450 30.979,184.231 31.463 C 184.012 31.947,183.833 32.555,183.833 32.815 L 183.833 33.286 185.958 33.385 C 187.127 33.440,188.421 33.431,188.833 33.367 L 189.583 33.250 189.995 32.083 C 190.554 30.499,190.625 23.314,190.107 20.667 C 188.505 12.459,183.833 6.555,180.503 8.530 M240.165 8.152 C 235.967 8.741,235.318 9.221,234.663 12.226 C 233.732 16.489,234.013 16.864,236.667 14.899 C 237.920 13.970,240.361 12.667,240.845 12.667 C 241.454 12.667,241.448 13.106,240.781 17.250 C 240.169 21.048,240.104 21.891,240.100 26.000 C 240.094 33.471,240.227 33.692,244.564 33.421 C 246.888 33.276,246.831 33.357,246.269 30.977 C 245.266 26.733,245.250 26.582,245.250 21.250 C 245.250 12.586,246.179 11.035,249.517 14.126 C 250.752 15.270,250.925 15.233,251.707 13.662 C 253.275 10.511,252.753 9.544,248.916 8.495 C 247.462 8.097,242.063 7.886,240.165 8.152 M326.750 8.487 C 323.687 10.264,320.257 15.156,319.066 19.448 C 317.790 24.041,317.696 30.120,318.865 32.474 L 319.250 33.250 322.125 33.296 C 323.899 33.324,325.000 33.279,325.000 33.180 C 325.000 33.091,324.730 32.433,324.400 31.718 C 321.964 26.435,323.380 24.178,329.167 24.119 C 332.505 24.085,332.883 25.669,330.724 30.646 C 330.311 31.597,329.961 32.572,329.945 32.812 L 329.917 33.250 331.892 33.381 C 332.978 33.452,334.290 33.452,334.808 33.381 L 335.750 33.250 336.148 32.083 C 336.615 30.716,336.777 22.941,336.374 21.250 C 336.265 20.792,336.017 19.704,335.823 18.833 C 334.316 12.067,329.684 6.784,326.750 8.487 M374.540 8.509 C 371.569 10.273,368.363 14.855,367.024 19.250 C 365.669 23.695,365.579 30.721,366.850 32.778 L 367.194 33.333 370.014 33.333 C 373.220 33.333,373.083 33.417,372.363 31.905 C 372.104 31.361,371.792 30.654,371.668 30.333 C 371.545 30.012,371.384 29.670,371.310 29.572 C 371.106 29.301,370.944 27.599,371.063 26.967 C 371.374 25.308,373.856 24.132,377.083 24.114 C 379.170 24.102,379.915 24.622,379.881 26.065 C 379.849 27.407,379.479 28.680,378.419 31.083 C 377.416 33.358,377.359 33.256,379.705 33.396 C 382.424 33.559,383.450 33.413,383.756 32.822 C 384.835 30.736,384.715 22.191,383.550 18.167 C 381.556 11.275,377.394 6.814,374.540 8.509 M102.294 8.618 C 102.034 8.905,101.863 9.588,101.323 12.500 C 101.115 13.622,100.761 16.398,100.388 19.833 C 100.094 22.542,99.962 31.986,100.206 32.854 C 100.295 33.169,100.475 33.320,100.852 33.395 C 101.558 33.537,112.722 33.505,113.667 33.360 L 114.417 33.244 114.363 32.414 C 114.237 30.476,113.078 26.662,112.617 26.670 C 112.507 26.672,111.817 27.120,111.083 27.666 C 104.690 32.423,102.467 25.099,106.607 12.917 C 107.830 9.316,107.942 8.875,107.688 8.622 C 107.303 8.236,102.643 8.233,102.294 8.618 M117.450 8.571 C 116.358 9.400,116.083 12.145,116.083 22.250 C 116.083 34.096,115.873 33.434,119.616 33.377 C 122.713 33.330,122.454 33.513,122.096 31.625 C 121.935 30.777,121.699 29.333,121.571 28.417 C 121.443 27.500,121.262 26.242,121.169 25.622 C 120.949 24.153,120.950 16.917,121.171 15.603 C 121.594 13.083,121.826 11.835,122.070 10.750 C 122.480 8.934,122.438 8.563,121.813 8.438 C 120.808 8.237,117.769 8.330,117.450 8.571 M126.305 8.506 C 125.285 9.101,124.834 13.366,124.835 22.417 C 124.836 29.699,125.044 32.413,125.660 33.201 C 125.777 33.350,129.961 33.428,130.105 33.284 C 130.207 33.182,130.132 32.518,129.607 28.917 C 129.003 24.777,128.740 17.309,129.174 16.667 C 129.532 16.138,130.791 17.936,132.675 21.667 C 134.323 24.929,135.275 27.480,136.263 31.284 C 136.834 33.481,136.631 33.350,139.389 33.296 L 141.731 33.250 142.065 32.250 C 142.493 30.970,142.599 14.108,142.194 11.833 C 141.601 8.513,141.438 8.340,138.908 8.336 C 136.717 8.333,136.799 8.170,137.371 11.380 C 138.106 15.510,138.151 15.883,138.258 18.833 L 138.357 21.583 137.873 20.750 C 137.607 20.292,136.735 18.731,135.935 17.282 C 134.583 14.830,132.500 11.391,131.977 10.745 C 130.925 9.446,130.053 8.651,129.519 8.502 C 128.754 8.290,126.671 8.292,126.305 8.506 M146.739 8.618 C 145.621 9.736,145.418 11.830,145.420 22.250 C 145.422 32.918,145.452 33.155,146.840 33.360 C 147.940 33.522,151.667 33.321,151.665 33.099 C 151.664 32.999,151.475 31.867,151.245 30.583 C 150.009 23.688,150.006 17.446,151.238 11.519 C 151.781 8.906,151.781 8.702,151.239 8.496 C 150.456 8.198,147.067 8.291,146.739 8.618 M201.289 8.456 C 200.698 8.503,200.436 8.611,200.260 8.884 C 199.201 10.527,199.295 19.725,200.408 23.333 C 202.435 29.909,206.973 35.194,209.378 33.780 C 214.841 30.568,218.662 19.290,216.996 11.295 C 216.409 8.481,216.276 8.374,213.313 8.346 C 211.063 8.324,210.535 8.679,211.163 9.794 C 211.526 10.438,212.154 12.221,212.334 13.123 C 212.440 13.651,212.596 14.398,212.680 14.782 C 213.522 18.620,211.906 24.406,209.347 26.718 C 208.512 27.472,208.330 27.414,207.263 26.054 C 205.032 23.212,203.923 18.188,204.669 14.300 C 204.763 13.814,204.919 13.004,205.016 12.500 C 205.113 11.996,205.378 11.035,205.605 10.365 C 206.301 8.305,205.834 8.098,201.289 8.456 M220.782 9.042 C 220.638 9.431,220.437 10.237,220.337 10.833 C 220.236 11.429,220.085 12.292,220.000 12.750 C 219.820 13.728,219.626 15.202,219.168 19.083 C 218.709 22.968,218.668 32.822,219.109 33.188 C 219.563 33.565,234.027 33.619,234.337 33.245 C 234.643 32.877,234.394 31.982,233.273 29.417 C 232.237 27.046,232.199 27.026,230.505 27.986 C 226.442 30.288,223.333 29.160,223.333 25.382 C 223.333 22.229,225.794 20.804,229.030 22.083 C 229.475 22.259,231.467 17.518,231.244 16.815 C 230.975 15.968,229.060 16.061,226.087 17.065 C 224.181 17.709,224.072 17.697,223.808 16.816 C 222.800 13.450,226.913 11.201,230.604 13.099 C 232.147 13.893,232.085 13.951,233.823 10.112 C 234.628 8.333,234.769 8.371,227.148 8.350 L 221.045 8.333 220.782 9.042 M255.709 8.536 C 255.368 8.954,254.810 11.605,254.402 14.748 C 253.614 20.823,253.601 21.011,253.592 27.033 C 253.585 31.699,253.630 33.029,253.800 33.200 C 254.025 33.425,267.952 33.632,268.788 33.422 C 269.276 33.299,269.293 32.544,268.830 31.523 C 268.648 31.124,268.500 30.727,268.500 30.640 C 268.500 30.554,268.167 29.775,267.759 28.909 C 266.884 27.049,266.848 27.036,265.154 27.996 C 260.964 30.370,257.756 29.000,258.043 24.958 C 258.228 22.334,260.553 20.948,263.162 21.904 C 264.049 22.230,264.242 22.071,264.739 20.605 C 264.898 20.135,265.097 19.600,265.181 19.417 C 265.447 18.834,266.000 17.123,266.000 16.882 C 266.000 15.981,263.613 16.067,260.785 17.072 C 258.770 17.787,258.333 17.626,258.333 16.165 C 258.333 12.925,261.887 11.359,265.279 13.104 C 266.706 13.838,266.657 13.858,267.549 12.167 C 268.639 10.099,269.028 8.957,268.741 8.669 C 268.392 8.320,255.988 8.194,255.709 8.536 M271.960 8.504 C 271.514 8.776,271.339 9.218,270.981 10.968 C 270.279 14.395,270.237 30.067,270.924 32.363 L 271.206 33.310 272.562 33.363 C 273.307 33.393,274.508 33.395,275.232 33.368 L 276.546 33.318 276.439 32.201 C 276.380 31.586,276.218 30.671,276.079 30.167 C 275.274 27.256,275.610 25.175,277.039 24.219 C 278.609 23.169,279.143 23.613,280.991 27.500 C 281.235 28.015,281.984 31.123,282.114 32.167 L 282.250 33.250 283.083 33.333 C 283.542 33.379,284.798 33.391,285.875 33.361 L 287.833 33.305 287.830 32.111 C 287.822 29.218,286.415 25.850,283.805 22.476 L 282.776 21.147 284.332 19.594 C 288.529 15.403,287.849 10.173,282.917 8.700 C 281.868 8.387,272.428 8.218,271.960 8.504 M291.116 8.542 C 290.054 9.328,289.750 12.401,289.750 22.333 C 289.750 34.070,289.547 33.433,293.262 33.377 C 296.408 33.329,296.150 33.550,295.700 31.284 C 294.285 24.174,294.307 16.237,295.754 10.650 C 296.163 9.074,296.099 8.561,295.479 8.438 C 294.520 8.246,291.415 8.320,291.116 8.542 M299.804 8.625 C 298.257 10.447,297.653 29.900,299.052 32.829 C 299.258 33.261,301.850 33.598,303.208 33.369 C 303.821 33.266,303.818 33.218,302.830 26.468 C 302.625 25.068,302.614 16.719,302.817 16.594 C 303.850 15.955,308.547 25.760,309.822 31.218 C 310.358 33.510,310.122 33.350,312.881 33.296 L 315.246 33.250 315.456 32.812 C 316.358 30.928,316.405 14.700,315.521 10.417 C 315.123 8.489,314.884 8.331,312.354 8.336 C 310.208 8.340,310.329 8.031,311.013 11.750 C 311.700 15.483,312.167 20.692,311.856 21.152 C 311.736 21.329,311.545 21.084,311.076 20.152 C 307.746 13.539,304.361 8.686,302.911 8.446 C 301.575 8.226,300.069 8.312,299.804 8.625 M339.887 8.611 C 338.307 9.984,337.731 30.248,339.192 33.042 C 339.328 33.301,339.641 33.333,342.006 33.333 C 344.978 33.333,344.796 33.425,344.510 32.083 C 343.977 29.577,343.814 28.571,343.723 27.230 L 343.619 25.711 344.316 24.954 C 345.100 24.105,346.017 23.597,346.494 23.748 C 347.728 24.140,349.382 27.726,349.975 31.296 C 350.146 32.330,350.316 33.203,350.352 33.237 C 350.455 33.334,352.095 33.388,354.067 33.360 L 355.884 33.333 355.784 31.625 C 355.647 29.274,354.420 25.838,353.159 24.273 C 353.075 24.169,352.509 23.420,351.902 22.610 L 350.799 21.137 352.305 19.693 C 354.444 17.644,354.917 16.629,354.917 14.083 C 354.917 11.061,353.803 9.562,350.917 8.700 C 349.501 8.278,340.356 8.203,339.887 8.611 M359.023 8.724 C 357.597 10.247,356.982 29.450,358.258 32.637 C 358.578 33.437,359.029 33.525,362.054 33.378 L 364.024 33.281 363.913 32.432 C 363.852 31.965,363.659 30.833,363.483 29.917 C 362.510 24.840,362.426 15.621,363.327 12.750 C 363.414 12.475,363.599 11.650,363.739 10.917 C 363.879 10.183,364.033 9.433,364.082 9.250 C 364.341 8.279,359.875 7.814,359.023 8.724 M35.500 8.852 C 32.582 8.996,29.129 9.511,28.233 9.936 C 27.411 10.326,27.103 11.288,26.158 16.417 C 25.594 19.471,25.518 19.992,25.275 22.466 C 25.145 23.777,25.012 24.874,24.978 24.904 C 24.944 24.934,23.679 25.079,22.167 25.226 C 13.441 26.075,10.733 26.668,9.988 27.894 C 8.429 30.457,8.454 48.953,10.021 52.038 C 10.639 53.256,12.989 53.813,24.042 55.362 C 25.110 55.512,25.333 55.595,25.333 55.845 C 25.333 56.274,26.492 59.958,27.086 61.417 C 27.197 61.692,27.496 62.442,27.750 63.083 C 29.345 67.123,32.266 72.442,34.436 75.262 C 38.556 80.614,41.621 80.516,45.853 74.896 C 49.317 70.297,53.114 62.764,54.931 56.884 C 55.487 55.086,55.131 55.270,58.917 54.826 C 67.712 53.793,70.233 53.145,70.847 51.758 C 72.135 48.847,72.336 33.652,71.148 29.113 C 70.598 27.015,69.774 26.740,61.833 26.010 C 58.587 25.712,55.501 25.344,55.363 25.239 C 55.333 25.217,55.202 24.085,55.072 22.724 C 54.831 20.218,54.393 16.592,53.927 13.250 C 53.406 9.515,52.715 9.200,44.219 8.838 C 39.881 8.653,39.532 8.653,35.500 8.852 M280.495 12.637 C 283.254 13.694,281.864 16.924,277.754 19.008 C 275.621 20.089,275.253 19.795,275.407 17.131 C 275.653 12.889,277.317 11.419,280.495 12.637 M348.856 12.773 C 351.116 14.084,349.518 17.278,345.695 19.088 C 343.613 20.073,343.402 19.896,343.452 17.201 C 343.504 14.420,344.069 13.040,345.352 12.553 C 346.170 12.242,348.158 12.367,348.856 12.773 M46.008 13.081 C 50.263 13.443,51.471 13.713,51.923 14.403 C 52.236 14.881,53.055 20.458,53.528 25.333 C 53.630 26.387,53.734 27.275,53.759 27.305 C 53.808 27.364,56.449 27.662,60.583 28.077 C 66.737 28.693,67.324 28.879,67.814 30.372 C 69.188 34.552,68.720 49.442,67.175 50.693 C 66.536 51.211,63.290 51.816,57.478 52.502 C 55.953 52.682,54.591 52.873,54.451 52.927 C 54.136 53.048,53.241 52.602,53.109 52.258 C 53.041 52.079,53.146 51.975,53.464 51.907 C 55.991 51.367,57.078 50.192,57.519 47.522 C 57.760 46.062,57.598 45.594,56.724 45.229 C 55.979 44.917,55.589 44.456,55.333 43.583 C 55.022 42.522,54.454 41.679,53.089 40.250 C 51.708 38.805,51.274 38.115,51.098 37.083 C 50.749 35.051,50.533 34.961,49.154 36.275 C 47.824 37.544,48.100 38.402,49.468 37.251 L 49.962 36.836 50.062 37.210 C 50.117 37.415,50.163 37.728,50.164 37.906 C 50.169 38.611,50.863 39.649,51.800 40.352 C 53.699 41.778,54.166 42.387,54.405 43.750 C 54.563 44.656,55.127 45.798,55.469 45.907 C 56.263 46.159,56.703 46.845,56.583 47.642 C 56.297 49.550,55.340 50.417,52.720 51.143 C 51.351 51.523,51.247 51.935,52.190 53.250 C 53.461 55.024,53.454 54.587,52.256 57.548 C 47.864 68.406,43.187 75.167,40.069 75.167 C 36.714 75.167,32.228 68.615,28.428 58.167 C 27.103 54.523,27.094 54.061,28.313 52.083 C 30.073 49.226,31.880 45.307,31.961 44.169 C 32.062 42.756,33.184 41.333,34.197 41.333 C 34.506 41.333,34.935 41.210,35.151 41.059 L 35.543 40.784 34.730 40.476 C 33.106 39.859,31.421 40.362,29.688 41.980 C 27.940 43.613,25.929 43.080,24.516 40.611 C 24.110 39.902,23.845 39.641,23.315 39.429 C 22.746 39.201,22.668 39.116,22.838 38.912 C 23.134 38.555,23.837 38.612,24.281 39.029 C 24.565 39.296,24.672 39.329,24.686 39.154 C 24.721 38.715,24.635 38.251,24.484 38.066 C 24.387 37.948,24.645 37.446,25.214 36.650 C 26.741 34.512,27.316 33.335,27.596 31.773 L 27.711 31.130 27.292 31.404 L 26.874 31.678 27.013 30.937 C 27.419 28.764,29.139 26.840,31.867 25.510 C 34.966 23.999,36.389 24.017,39.650 25.609 L 41.551 26.537 43.421 26.420 C 45.630 26.282,45.721 26.314,47.390 27.845 C 48.889 29.219,48.941 29.381,48.395 30.971 C 47.249 34.314,45.578 36.442,44.440 36.009 C 43.999 35.841,43.000 34.614,43.000 34.241 C 43.000 32.355,41.320 30.084,39.458 29.455 C 38.364 29.085,38.434 29.394,39.656 30.333 C 40.994 31.362,41.061 31.500,41.177 33.465 L 41.278 35.181 42.014 35.933 C 43.030 36.973,44.388 38.000,44.745 38.000 C 45.279 38.000,47.757 35.346,48.253 34.244 C 48.498 33.697,49.004 32.612,49.375 31.833 C 49.755 31.036,50.086 30.065,50.131 29.613 L 50.211 28.809 49.147 27.809 C 47.083 25.869,46.312 25.385,44.963 25.184 C 42.393 24.799,41.684 24.615,39.667 23.802 C 36.563 22.553,34.996 22.547,32.333 23.774 C 28.050 25.748,25.392 29.017,25.768 31.847 C 25.920 32.997,24.284 36.051,22.546 37.862 C 21.833 38.604,21.800 39.111,22.418 39.805 C 22.671 40.089,23.149 40.755,23.480 41.286 C 25.311 44.217,27.966 44.906,30.059 42.994 C 30.556 42.539,30.995 42.167,31.033 42.167 C 31.328 42.167,30.673 45.451,30.136 46.667 C 29.384 48.369,29.091 48.900,28.074 50.399 C 27.488 51.263,26.876 52.248,26.714 52.587 C 26.421 53.202,26.416 53.205,25.585 53.112 C 25.126 53.061,23.662 52.900,22.333 52.756 C 15.728 52.039,13.518 51.506,13.152 50.545 C 11.811 47.018,11.999 31.557,13.409 29.406 C 13.877 28.691,17.428 27.948,22.917 27.414 C 26.320 27.083,26.833 26.999,26.835 26.770 C 26.838 26.293,27.358 22.379,27.657 20.583 C 28.564 15.121,28.832 14.352,30.001 13.849 C 31.977 12.999,40.330 12.598,46.008 13.081 M182.868 14.125 C 183.900 15.196,185.167 17.813,185.167 18.874 C 185.167 19.336,184.306 19.608,182.454 19.732 C 181.557 19.792,180.245 19.952,179.537 20.087 C 177.690 20.441,177.667 20.436,177.667 19.746 C 177.667 18.066,180.765 13.500,181.905 13.500 C 182.104 13.500,182.537 13.781,182.868 14.125 M329.176 14.292 C 330.102 15.333,330.995 17.219,331.116 18.387 L 331.211 19.309 330.564 19.472 C 330.208 19.561,329.242 19.685,328.417 19.746 C 327.592 19.806,326.354 19.964,325.667 20.095 C 323.857 20.440,323.833 20.435,323.833 19.739 C 323.833 18.025,326.925 13.500,328.097 13.500 C 328.334 13.500,328.730 13.791,329.176 14.292 M376.942 14.123 C 378.042 15.360,378.965 17.386,378.987 18.615 C 379.003 19.503,379.003 19.503,376.781 19.687 C 375.756 19.772,374.311 19.952,373.570 20.087 C 371.683 20.432,371.666 20.430,371.671 19.792 C 371.681 18.561,373.240 15.782,374.762 14.281 C 375.755 13.303,376.184 13.272,376.942 14.123 M46.227 37.375 C 45.539 38.114,44.722 39.409,44.482 40.143 C 44.372 40.477,43.857 41.275,43.336 41.917 C 40.971 44.832,39.065 51.341,39.974 53.397 C 40.296 54.125,40.658 54.415,40.674 53.958 C 40.836 49.283,42.248 44.478,43.995 42.655 C 44.456 42.175,44.833 41.677,44.833 41.549 C 44.833 41.030,46.513 38.500,46.857 38.500 C 46.940 38.500,47.086 38.706,47.182 38.958 C 47.562 39.962,48.667 40.609,48.667 39.828 C 48.667 39.395,47.880 37.507,47.541 37.125 C 47.160 36.697,46.795 36.766,46.227 37.375 M201.417 41.187 C 195.326 42.018,194.055 42.677,193.422 45.333 C 193.280 45.929,193.087 46.652,192.994 46.940 C 192.658 47.979,192.182 51.853,192.340 52.267 C 192.571 52.875,193.157 52.769,194.445 51.888 C 199.100 48.706,201.021 47.667,202.253 47.667 C 203.081 47.667,203.227 48.735,202.763 51.417 C 202.636 52.150,202.411 53.462,202.263 54.333 C 202.115 55.204,201.923 56.329,201.836 56.833 C 200.734 63.237,201.089 75.725,202.431 77.792 C 203.083 78.797,211.220 78.231,210.940 77.200 C 210.898 77.044,210.666 76.092,210.426 75.083 C 210.185 74.075,209.914 72.987,209.822 72.667 C 208.631 68.493,208.244 55.878,209.183 51.833 C 209.721 49.514,209.980 48.876,210.724 48.042 C 211.535 47.132,213.159 47.737,215.369 49.774 C 217.381 51.629,217.504 51.612,218.552 49.333 C 218.868 48.646,219.264 47.783,219.432 47.417 C 219.988 46.204,219.967 44.275,219.392 43.741 C 216.942 41.463,208.345 40.241,201.417 41.187 M232.833 41.224 C 222.297 44.365,216.513 67.678,224.326 75.510 C 227.321 78.513,231.376 79.364,239.417 78.676 C 247.996 77.943,251.934 69.155,249.054 57.167 C 246.322 45.791,239.617 39.201,232.833 41.224 M264.750 41.154 C 249.112 44.843,246.950 72.923,261.905 78.101 C 270.677 81.138,278.991 75.232,277.688 66.891 C 277.221 63.900,276.871 63.726,275.811 65.957 C 272.055 73.866,261.366 71.327,259.551 62.096 C 258.769 58.120,259.665 53.685,261.847 50.732 C 264.814 46.715,271.196 46.255,272.019 50.000 C 272.286 51.213,272.551 51.500,273.401 51.498 C 278.842 51.482,279.409 44.813,274.193 42.180 C 271.831 40.987,267.465 40.513,264.750 41.154 M338.407 41.165 C 330.564 42.938,325.662 50.446,325.622 60.750 C 325.602 65.618,325.965 67.265,327.932 71.240 C 330.513 76.456,335.290 79.158,341.250 78.773 C 348.089 78.331,352.246 73.437,351.335 66.900 C 350.951 64.148,350.412 63.623,349.761 65.368 C 348.195 69.567,344.194 71.530,339.837 70.236 C 329.589 67.192,331.241 47.627,341.750 47.590 C 344.478 47.581,345.132 47.987,345.670 50.026 C 345.987 51.229,346.240 51.500,347.046 51.498 C 352.326 51.483,353.128 45.156,348.201 42.386 C 345.668 40.962,341.566 40.451,338.407 41.165 M366.083 41.155 C 359.212 43.187,353.836 53.508,353.836 64.667 C 353.836 73.020,357.275 77.787,363.947 78.682 C 366.019 78.960,373.057 78.783,374.411 78.419 C 381.410 76.539,384.411 69.098,382.411 58.583 C 380.163 46.763,372.994 39.110,366.083 41.155 M83.147 41.668 C 80.478 43.227,79.878 76.597,82.495 77.997 C 82.705 78.110,84.215 78.157,86.703 78.128 L 90.583 78.083 90.570 77.333 C 90.563 76.921,90.386 75.833,90.178 74.917 C 89.969 74.000,89.733 72.950,89.653 72.583 C 89.329 71.104,89.268 67.776,89.554 67.224 C 90.005 66.352,91.697 64.983,94.030 63.603 C 95.251 62.881,97.000 61.842,97.917 61.295 C 102.173 58.754,104.589 56.205,105.859 52.917 C 107.632 48.323,105.361 43.448,100.708 41.856 C 99.566 41.466,83.783 41.296,83.147 41.668 M109.287 42.042 C 107.599 45.689,106.905 60.919,108.159 66.778 C 109.875 74.795,114.101 78.811,120.833 78.824 C 127.511 78.838,131.592 75.193,133.418 67.583 C 134.770 61.946,134.513 46.167,133.013 42.746 C 132.459 41.482,132.516 41.500,129.009 41.500 C 125.165 41.500,125.309 41.412,125.832 43.458 C 128.549 54.092,128.165 65.464,124.970 68.930 C 121.530 72.661,117.149 70.383,115.490 64.000 C 114.657 60.796,114.962 50.436,115.995 46.833 C 116.136 46.342,116.669 44.165,117.063 42.470 C 117.274 41.563,117.015 41.500,113.090 41.500 L 109.538 41.500 109.287 42.042 M141.101 41.638 C 140.247 43.019,138.633 53.621,137.912 62.583 C 137.591 66.566,137.633 76.327,137.974 77.366 C 138.261 78.235,138.188 78.229,150.349 78.240 C 161.730 78.251,161.500 78.268,161.500 77.416 C 161.500 77.067,160.934 75.411,160.418 74.250 C 160.296 73.975,159.927 73.141,159.599 72.397 C 158.064 68.922,158.200 68.983,155.346 70.470 C 148.824 73.867,144.291 72.036,144.533 66.103 C 144.704 61.889,147.935 59.779,152.107 61.156 C 152.762 61.372,153.423 61.501,153.575 61.443 C 154.075 61.251,156.500 55.170,156.500 54.108 C 156.500 52.649,153.631 52.677,149.130 54.181 C 145.795 55.294,145.571 55.263,145.158 53.621 C 143.813 48.269,151.315 45.014,156.526 48.688 C 157.613 49.455,157.834 49.238,159.584 45.701 C 160.962 42.915,161.153 42.279,160.750 41.834 C 160.430 41.479,141.317 41.289,141.101 41.638 M165.967 41.783 C 164.465 43.472,163.921 48.899,163.922 62.167 C 163.924 73.980,164.229 77.301,165.381 78.033 C 165.768 78.279,172.954 78.193,173.051 77.941 C 173.146 77.694,172.915 76.318,172.264 73.247 C 171.424 69.287,171.397 67.496,172.157 66.266 C 172.878 65.098,175.201 63.710,176.069 63.928 C 178.065 64.429,181.144 71.183,181.679 76.235 C 181.899 78.312,181.566 78.167,186.098 78.167 C 190.668 78.167,190.448 78.267,190.261 76.267 C 189.740 70.704,188.037 67.053,183.332 61.420 C 182.278 60.158,182.263 60.240,183.789 58.981 C 187.672 55.776,188.882 53.571,188.854 49.750 C 188.824 45.641,186.987 43.262,182.833 41.952 C 181.232 41.447,166.398 41.298,165.967 41.783 M283.886 41.631 C 282.999 42.194,282.313 46.016,281.575 54.500 C 281.059 60.427,281.240 74.785,281.861 77.139 C 282.123 78.135,282.271 78.167,286.591 78.167 L 290.327 78.167 290.423 77.784 C 290.511 77.433,290.207 76.227,289.827 75.417 C 288.693 73.005,288.306 66.452,289.196 64.750 C 291.402 60.533,299.665 58.963,301.187 62.472 C 302.006 64.362,301.232 69.530,299.332 74.857 C 298.129 78.230,298.055 78.167,303.259 78.167 L 306.996 78.167 307.239 77.584 C 308.025 75.704,308.525 62.668,307.997 57.833 C 307.902 56.962,307.713 55.200,307.577 53.917 C 306.969 48.166,305.782 42.867,304.886 41.900 C 304.517 41.501,304.509 41.500,300.766 41.500 C 296.025 41.500,296.273 41.270,297.710 44.333 C 299.775 48.733,300.344 50.396,300.460 52.357 C 300.568 54.205,300.745 54.121,296.356 54.321 C 293.100 54.469,292.738 54.518,291.361 54.990 C 289.512 55.625,289.453 55.624,289.084 54.940 C 288.404 53.677,288.943 50.303,290.593 45.493 C 291.572 42.641,291.728 42.067,291.608 41.754 C 291.502 41.478,284.306 41.363,283.886 41.631 M315.203 41.612 C 313.631 42.244,312.690 51.605,312.892 64.583 C 313.032 73.539,313.381 76.873,314.280 77.867 C 314.633 78.256,322.233 78.335,322.381 77.950 C 322.458 77.750,322.100 75.336,321.925 74.880 C 321.199 72.981,320.434 65.049,320.426 59.333 C 320.417 53.001,320.656 50.831,322.011 44.964 C 322.546 42.644,322.603 42.003,322.300 41.700 C 322.099 41.499,315.682 41.420,315.203 41.612 M95.147 47.190 C 100.460 48.115,100.033 52.232,94.161 56.696 C 89.605 60.159,88.403 59.983,88.441 55.858 C 88.509 48.598,90.256 46.338,95.147 47.190 M178.978 47.441 C 183.520 48.955,181.363 54.186,174.869 57.410 C 171.836 58.916,171.238 58.530,171.267 55.083 C 171.308 50.377,172.325 47.901,174.443 47.356 C 174.795 47.266,175.233 47.153,175.417 47.106 C 175.972 46.962,178.157 47.168,178.978 47.441 M236.550 48.757 C 240.956 51.220,244.144 62.741,241.741 67.514 C 239.660 71.645,231.257 71.801,228.992 67.750 C 227.685 65.411,227.997 58.771,229.596 54.905 C 231.712 49.792,234.303 47.501,236.550 48.757 M369.790 48.837 C 374.884 51.759,377.578 65.616,373.713 69.011 C 370.994 71.398,364.968 71.159,362.693 68.573 C 359.783 65.268,361.334 54.657,365.373 50.238 C 367.135 48.311,368.253 47.956,369.790 48.837 " stroke="none" fill="#1e73be" fill-rule="evenodd"></path><path id="path1" d="" stroke="none" fill="#1e73be" fill-rule="evenodd"></path></g></svg>