<svg id="svg" xmlns="http://www.w3.org/2000/svg" xmlns:xlink="http://www.w3.org/1999/xlink" width="400" height="411.1498257839721" viewBox="0, 0, 400,411.1498257839721" version="1.1"><g id="svgg"><path id="path0" d="M162.516 5.600 C 162.316 6.364,161.970 6.400,154.753 6.400 C 148.306 6.400,147.200 6.488,147.200 7.000 C 147.200 7.500,146.396 7.600,142.363 7.600 C 137.862 7.600,137.511 7.656,137.316 8.400 C 137.128 9.120,136.770 9.200,133.753 9.200 C 131.039 9.200,130.400 9.314,130.400 9.800 C 130.400 10.253,129.911 10.400,128.400 10.400 C 126.667 10.400,126.400 10.507,126.400 11.200 C 126.400 11.848,126.133 12.000,125.000 12.000 C 124.075 12.000,123.600 12.188,123.600 12.553 C 123.600 12.858,123.240 13.201,122.800 13.316 C 122.217 13.468,122.000 13.862,122.000 14.763 C 122.000 15.596,121.804 16.000,121.400 16.000 C 120.939 16.000,120.800 16.511,120.800 18.200 C 120.800 20.133,120.703 20.400,120.000 20.400 C 119.307 20.400,119.200 20.667,119.200 22.400 C 119.200 23.911,119.053 24.400,118.600 24.400 C 118.111 24.400,118.000 25.067,118.000 28.000 C 118.000 31.333,117.941 31.600,117.200 31.600 C 116.482 31.600,116.400 31.867,116.400 34.200 C 116.400 36.244,116.272 36.800,115.800 36.800 C 115.311 36.800,115.200 37.467,115.200 40.400 C 115.200 43.733,115.141 44.000,114.400 44.000 C 113.663 44.000,113.600 44.267,113.600 47.400 C 113.600 50.156,113.486 50.800,113.000 50.800 C 112.511 50.800,112.400 51.467,112.400 54.400 C 112.400 57.733,112.341 58.000,111.600 58.000 C 110.851 58.000,110.800 58.267,110.800 62.200 C 110.800 65.667,110.695 66.400,110.200 66.400 C 109.700 66.400,109.600 67.200,109.600 71.200 C 109.600 75.733,109.556 76.000,108.800 76.000 C 108.028 76.000,108.000 76.267,108.000 83.600 C 108.000 90.089,107.912 91.200,107.400 91.200 C 106.924 91.200,106.800 91.778,106.800 94.000 L 106.800 96.800 105.400 96.800 C 104.267 96.800,104.000 96.952,104.000 97.600 C 104.000 98.362,103.733 98.400,98.400 98.400 C 93.689 98.400,92.800 98.495,92.800 99.000 C 92.800 99.510,91.756 99.600,85.800 99.600 C 79.067 99.600,78.800 99.630,78.800 100.400 C 78.800 101.170,78.533 101.200,71.800 101.200 C 65.844 101.200,64.800 101.290,64.800 101.800 C 64.800 102.308,63.844 102.400,58.600 102.400 C 52.667 102.400,52.400 102.434,52.400 103.200 C 52.400 103.957,52.133 104.000,47.400 104.000 C 43.222 104.000,42.400 104.099,42.400 104.600 C 42.400 105.093,41.689 105.200,38.400 105.200 C 34.667 105.200,34.400 105.253,34.400 106.000 C 34.400 106.741,34.133 106.800,30.800 106.800 C 27.867 106.800,27.200 106.911,27.200 107.400 C 27.200 107.853,26.711 108.000,25.200 108.000 C 23.467 108.000,23.200 108.107,23.200 108.800 C 23.200 109.448,22.933 109.600,21.800 109.600 C 20.822 109.600,20.400 109.781,20.400 110.200 C 20.400 110.619,19.978 110.800,19.000 110.800 C 18.022 110.800,17.600 110.981,17.600 111.400 C 17.600 111.730,17.313 112.000,16.963 112.000 C 16.612 112.000,16.231 112.360,16.116 112.800 C 16.001 113.240,15.658 113.600,15.353 113.600 C 15.049 113.600,14.800 113.849,14.800 114.153 C 14.800 114.458,14.440 114.801,14.000 114.916 C 13.417 115.068,13.200 115.462,13.200 116.363 C 13.200 117.196,13.004 117.600,12.600 117.600 C 12.125 117.600,12.000 118.173,12.000 120.353 C 12.000 122.770,11.902 123.132,11.200 123.316 C 10.467 123.508,10.400 123.862,10.400 127.563 C 10.400 130.885,10.294 131.600,9.800 131.600 C 9.295 131.600,9.200 132.489,9.200 137.200 C 9.200 142.533,9.162 142.800,8.400 142.800 C 7.618 142.800,7.600 143.067,7.600 154.600 C 7.600 164.822,7.520 166.400,7.000 166.400 C 6.476 166.400,6.400 168.600,6.400 183.800 C 6.400 199.000,6.476 201.200,7.000 201.200 C 7.516 201.200,7.600 202.467,7.600 210.200 C 7.600 218.933,7.624 219.200,8.400 219.200 C 9.173 219.200,9.200 219.467,9.200 227.000 C 9.200 233.667,9.287 234.800,9.800 234.800 C 10.293 234.800,10.400 235.511,10.400 238.800 C 10.400 242.533,10.453 242.800,11.200 242.800 C 11.924 242.800,12.000 243.067,12.000 245.600 C 12.000 247.822,12.124 248.400,12.600 248.400 C 13.061 248.400,13.200 248.911,13.200 250.600 C 13.200 252.533,13.297 252.800,14.000 252.800 C 14.648 252.800,14.800 253.067,14.800 254.200 C 14.800 255.178,14.981 255.600,15.400 255.600 C 15.730 255.600,16.000 255.870,16.000 256.200 C 16.000 256.533,16.356 256.800,16.800 256.800 C 17.333 256.800,17.600 257.067,17.600 257.600 C 17.600 258.293,17.867 258.400,19.600 258.400 C 21.111 258.400,21.600 258.547,21.600 259.000 C 21.600 259.461,22.111 259.600,23.800 259.600 C 25.733 259.600,26.000 259.697,26.000 260.400 C 26.000 261.137,26.267 261.200,29.400 261.200 C 32.156 261.200,32.800 261.314,32.800 261.800 C 32.800 262.289,33.467 262.400,36.400 262.400 C 39.733 262.400,40.000 262.459,40.000 263.200 C 40.000 263.937,40.267 264.000,43.400 264.000 C 46.156 264.000,46.800 264.114,46.800 264.600 C 46.800 265.095,47.533 265.200,51.000 265.200 C 54.933 265.200,55.200 265.251,55.200 266.000 C 55.200 266.756,55.467 266.800,60.000 266.800 C 64.000 266.800,64.800 266.900,64.800 267.400 C 64.800 267.901,65.622 268.000,69.800 268.000 C 74.533 268.000,74.800 268.043,74.800 268.800 C 74.800 269.562,75.067 269.600,80.400 269.600 C 85.111 269.600,86.000 269.695,86.000 270.200 C 86.000 270.693,86.706 270.800,89.953 270.800 C 93.570 270.800,93.924 270.868,94.116 271.600 C 94.311 272.344,94.662 272.400,99.163 272.400 C 103.196 272.400,104.000 272.500,104.000 273.000 C 104.000 273.453,104.489 273.600,106.000 273.600 L 108.000 273.600 108.000 275.000 C 108.000 276.133,108.152 276.400,108.800 276.400 C 109.524 276.400,109.600 276.667,109.600 279.200 C 109.600 281.422,109.724 282.000,110.200 282.000 C 110.653 282.000,110.800 282.489,110.800 284.000 C 110.800 285.733,110.907 286.000,111.600 286.000 C 112.303 286.000,112.400 286.267,112.400 288.200 C 112.400 289.889,112.539 290.400,113.000 290.400 C 113.453 290.400,113.600 290.889,113.600 292.400 C 113.600 294.133,113.707 294.400,114.400 294.400 C 115.103 294.400,115.200 294.667,115.200 296.600 C 115.200 298.289,115.339 298.800,115.800 298.800 C 116.253 298.800,116.400 299.289,116.400 300.800 C 116.400 302.533,116.507 302.800,117.200 302.800 C 117.848 302.800,118.000 303.067,118.000 304.200 C 118.000 305.178,118.181 305.600,118.600 305.600 C 119.055 305.600,119.200 306.093,119.200 307.637 C 119.200 309.338,119.332 309.709,120.000 309.884 C 120.601 310.041,120.800 310.430,120.800 311.447 C 120.800 312.383,120.985 312.800,121.400 312.800 C 121.819 312.800,122.000 313.222,122.000 314.200 C 122.000 315.333,122.152 315.600,122.800 315.600 C 123.493 315.600,123.600 315.867,123.600 317.600 C 123.600 319.111,123.747 319.600,124.200 319.600 C 124.619 319.600,124.800 320.022,124.800 321.000 C 124.800 322.133,124.952 322.400,125.600 322.400 C 126.248 322.400,126.400 322.667,126.400 323.800 C 126.400 324.778,126.581 325.200,127.000 325.200 C 127.419 325.200,127.600 325.622,127.600 326.600 C 127.600 327.733,127.752 328.000,128.400 328.000 C 129.048 328.000,129.200 328.267,129.200 329.400 C 129.200 330.378,129.381 330.800,129.800 330.800 C 130.219 330.800,130.400 331.222,130.400 332.200 C 130.400 333.178,130.581 333.600,131.000 333.600 C 131.419 333.600,131.600 334.022,131.600 335.000 C 131.600 336.133,131.752 336.400,132.400 336.400 C 133.048 336.400,133.200 336.667,133.200 337.800 C 133.200 338.778,133.381 339.200,133.800 339.200 C 134.204 339.200,134.400 339.604,134.400 340.437 C 134.400 341.338,134.617 341.732,135.200 341.884 C 135.801 342.041,136.000 342.430,136.000 343.447 C 136.000 344.383,136.185 344.800,136.600 344.800 C 136.930 344.800,137.200 345.070,137.200 345.400 C 137.200 345.733,137.556 346.000,138.000 346.000 C 138.648 346.000,138.800 346.267,138.800 347.400 C 138.800 348.378,138.981 348.800,139.400 348.800 C 139.819 348.800,140.000 349.222,140.000 350.200 C 140.000 351.333,140.152 351.600,140.800 351.600 C 141.448 351.600,141.600 351.867,141.600 353.000 C 141.600 353.978,141.781 354.400,142.200 354.400 C 142.619 354.400,142.800 354.822,142.800 355.800 C 142.800 356.933,142.952 357.200,143.600 357.200 C 144.044 357.200,144.400 357.467,144.400 357.800 C 144.400 358.130,144.670 358.400,145.000 358.400 C 145.419 358.400,145.600 358.822,145.600 359.800 C 145.600 360.933,145.752 361.200,146.400 361.200 C 147.048 361.200,147.200 361.467,147.200 362.600 C 147.200 363.578,147.381 364.000,147.800 364.000 C 148.219 364.000,148.400 364.422,148.400 365.400 C 148.400 366.533,148.552 366.800,149.200 366.800 C 149.733 366.800,150.000 367.067,150.000 367.600 C 150.000 368.044,150.267 368.400,150.600 368.400 C 150.930 368.400,151.200 368.670,151.200 369.000 C 151.200 369.333,151.556 369.600,152.000 369.600 C 152.648 369.600,152.800 369.867,152.800 371.000 C 152.800 371.978,152.981 372.400,153.400 372.400 C 153.819 372.400,154.000 372.822,154.000 373.800 C 154.000 374.933,154.152 375.200,154.800 375.200 C 155.333 375.200,155.600 375.467,155.600 376.000 C 155.600 376.444,155.867 376.800,156.200 376.800 C 156.530 376.800,156.800 377.070,156.800 377.400 C 156.800 377.733,157.156 378.000,157.600 378.000 C 158.248 378.000,158.400 378.267,158.400 379.400 C 158.400 380.378,158.581 380.800,159.000 380.800 C 159.333 380.800,159.600 381.156,159.600 381.600 C 159.600 382.133,159.867 382.400,160.400 382.400 C 160.844 382.400,161.200 382.667,161.200 383.000 C 161.200 383.330,161.470 383.600,161.800 383.600 C 162.219 383.600,162.400 384.022,162.400 385.000 C 162.400 386.133,162.552 386.400,163.200 386.400 C 163.733 386.400,164.000 386.667,164.000 387.200 C 164.000 387.644,164.267 388.000,164.600 388.000 C 164.930 388.000,165.200 388.270,165.200 388.600 C 165.200 388.933,165.556 389.200,166.000 389.200 C 166.533 389.200,166.800 389.467,166.800 390.000 C 166.800 390.444,167.067 390.800,167.400 390.800 C 167.730 390.800,168.000 391.070,168.000 391.400 C 168.000 391.733,168.356 392.000,168.800 392.000 C 169.244 392.000,169.600 392.267,169.600 392.600 C 169.600 392.930,169.870 393.200,170.200 393.200 C 170.533 393.200,170.800 393.556,170.800 394.000 C 170.800 394.533,171.067 394.800,171.600 394.800 C 172.044 394.800,172.400 395.067,172.400 395.400 C 172.400 395.730,172.670 396.000,173.000 396.000 C 173.333 396.000,173.600 396.356,173.600 396.800 C 173.600 397.244,173.867 397.600,174.200 397.600 C 174.530 397.600,174.800 397.870,174.800 398.200 C 174.800 398.533,175.156 398.800,175.600 398.800 C 176.133 398.800,176.400 399.067,176.400 399.600 C 176.400 400.044,176.667 400.400,177.000 400.400 C 177.330 400.400,177.600 400.670,177.600 401.000 C 177.600 401.419,178.022 401.600,179.000 401.600 C 180.133 401.600,180.400 401.752,180.400 402.400 C 180.400 402.933,180.667 403.200,181.200 403.200 C 181.644 403.200,182.000 403.467,182.000 403.800 C 182.000 404.219,182.422 404.400,183.400 404.400 C 184.533 404.400,184.800 404.552,184.800 405.200 C 184.800 405.848,185.067 406.000,186.200 406.000 C 187.178 406.000,187.600 406.181,187.600 406.600 C 187.600 407.053,188.089 407.200,189.600 407.200 C 191.333 407.200,191.600 407.307,191.600 408.000 C 191.600 409.250,207.803 409.250,208.200 408.000 C 208.389 407.405,208.805 407.200,209.827 407.200 C 210.781 407.200,211.200 407.017,211.200 406.600 C 211.200 406.181,211.622 406.000,212.600 406.000 C 213.733 406.000,214.000 405.848,214.000 405.200 C 214.000 404.756,214.267 404.400,214.600 404.400 C 214.930 404.400,215.200 404.130,215.200 403.800 C 215.200 403.381,215.622 403.200,216.600 403.200 C 217.733 403.200,218.000 403.048,218.000 402.400 C 218.000 401.867,218.267 401.600,218.800 401.600 C 219.244 401.600,219.600 401.333,219.600 401.000 C 219.600 400.670,219.870 400.400,220.200 400.400 C 220.533 400.400,220.800 400.044,220.800 399.600 C 220.800 399.067,221.067 398.800,221.600 398.800 C 222.044 398.800,222.400 398.533,222.400 398.200 C 222.400 397.870,222.670 397.600,223.000 397.600 C 223.333 397.600,223.600 397.244,223.600 396.800 C 223.600 396.267,223.867 396.000,224.400 396.000 C 224.844 396.000,225.200 395.733,225.200 395.400 C 225.200 395.070,225.470 394.800,225.800 394.800 C 226.133 394.800,226.400 394.444,226.400 394.000 C 226.400 393.467,226.667 393.200,227.200 393.200 C 227.644 393.200,228.000 392.933,228.000 392.600 C 228.000 392.270,228.270 392.000,228.600 392.000 C 228.930 392.000,229.200 391.751,229.200 391.447 C 229.200 391.142,229.560 390.799,230.000 390.684 C 230.440 390.569,230.800 390.188,230.800 389.837 C 230.800 389.487,231.070 389.200,231.400 389.200 C 231.730 389.200,232.000 388.951,232.000 388.647 C 232.000 388.342,232.360 387.999,232.800 387.884 C 233.383 387.732,233.600 387.338,233.600 386.437 C 233.600 385.604,233.796 385.200,234.200 385.200 C 234.533 385.200,234.800 384.844,234.800 384.400 C 234.800 383.867,235.067 383.600,235.600 383.600 C 236.044 383.600,236.400 383.333,236.400 383.000 C 236.400 382.670,236.670 382.400,237.000 382.400 C 237.415 382.400,237.600 381.983,237.600 381.047 C 237.600 380.030,237.799 379.641,238.400 379.484 C 238.840 379.369,239.200 378.988,239.200 378.637 C 239.200 378.287,239.470 378.000,239.800 378.000 C 240.130 378.000,240.400 377.751,240.400 377.447 C 240.400 377.142,240.760 376.799,241.200 376.684 C 241.783 376.532,242.000 376.138,242.000 375.237 C 242.000 374.404,242.196 374.000,242.600 374.000 C 242.933 374.000,243.200 373.644,243.200 373.200 C 243.200 372.756,243.467 372.400,243.800 372.400 C 244.219 372.400,244.400 371.978,244.400 371.000 C 244.400 369.867,244.552 369.600,245.200 369.600 C 245.644 369.600,246.000 369.333,246.000 369.000 C 246.000 368.670,246.270 368.400,246.600 368.400 C 246.933 368.400,247.200 368.044,247.200 367.600 C 247.200 367.067,247.467 366.800,248.000 366.800 C 248.648 366.800,248.800 366.533,248.800 365.400 C 248.800 364.422,248.981 364.000,249.400 364.000 C 249.819 364.000,250.000 363.578,250.000 362.600 C 250.000 361.467,250.152 361.200,250.800 361.200 C 251.244 361.200,251.600 360.933,251.600 360.600 C 251.600 360.270,251.870 360.000,252.200 360.000 C 252.619 360.000,252.800 359.578,252.800 358.600 C 252.800 357.467,252.952 357.200,253.600 357.200 C 254.133 357.200,254.400 356.933,254.400 356.400 C 254.400 355.956,254.667 355.600,255.000 355.600 C 255.400 355.600,255.600 355.200,255.600 354.400 C 255.600 353.467,255.778 353.200,256.400 353.200 C 257.048 353.200,257.200 352.933,257.200 351.800 C 257.200 350.822,257.381 350.400,257.800 350.400 C 258.133 350.400,258.400 350.044,258.400 349.600 C 258.400 349.067,258.667 348.800,259.200 348.800 C 259.848 348.800,260.000 348.533,260.000 347.400 C 260.000 346.422,260.181 346.000,260.600 346.000 C 261.019 346.000,261.200 345.578,261.200 344.600 C 261.200 343.467,261.352 343.200,262.000 343.200 C 262.648 343.200,262.800 342.933,262.800 341.800 C 262.800 340.822,262.981 340.400,263.400 340.400 C 263.819 340.400,264.000 339.978,264.000 339.000 C 264.000 337.867,264.152 337.600,264.800 337.600 C 265.244 337.600,265.600 337.333,265.600 337.000 C 265.600 336.670,265.870 336.400,266.200 336.400 C 266.619 336.400,266.800 335.978,266.800 335.000 C 266.800 333.867,266.952 333.600,267.600 333.600 C 268.248 333.600,268.400 333.333,268.400 332.200 C 268.400 331.222,268.581 330.800,269.000 330.800 C 269.415 330.800,269.600 330.383,269.600 329.447 C 269.600 328.430,269.799 328.041,270.400 327.884 C 270.983 327.732,271.200 327.338,271.200 326.437 C 271.200 325.604,271.396 325.200,271.800 325.200 C 272.215 325.200,272.400 324.783,272.400 323.847 C 272.400 322.830,272.599 322.441,273.200 322.284 C 273.783 322.132,274.000 321.738,274.000 320.837 C 274.000 320.004,274.196 319.600,274.600 319.600 C 275.019 319.600,275.200 319.178,275.200 318.200 C 275.200 317.067,275.352 316.800,276.000 316.800 C 276.648 316.800,276.800 316.533,276.800 315.400 C 276.800 314.422,276.981 314.000,277.400 314.000 C 277.851 314.000,278.000 313.516,278.000 312.047 C 278.000 310.430,278.138 310.057,278.800 309.884 C 279.383 309.732,279.600 309.338,279.600 308.437 C 279.600 307.604,279.796 307.200,280.200 307.200 C 280.615 307.200,280.800 306.783,280.800 305.847 C 280.800 304.830,280.999 304.441,281.600 304.284 C 282.268 304.109,282.400 303.738,282.400 302.037 C 282.400 300.493,282.545 300.000,283.000 300.000 C 283.419 300.000,283.600 299.578,283.600 298.600 C 283.600 297.467,283.752 297.200,284.400 297.200 C 285.093 297.200,285.200 296.933,285.200 295.200 C 285.200 293.689,285.347 293.200,285.800 293.200 C 286.215 293.200,286.400 292.783,286.400 291.847 C 286.400 290.830,286.599 290.441,287.200 290.284 C 287.868 290.109,288.000 289.738,288.000 288.037 C 288.000 286.493,288.145 286.000,288.600 286.000 C 289.053 286.000,289.200 285.511,289.200 284.000 C 289.200 282.489,289.347 282.000,289.800 282.000 C 290.253 282.000,290.400 281.511,290.400 280.000 C 290.400 278.267,290.507 278.000,291.200 278.000 C 291.903 278.000,292.000 277.733,292.000 275.800 C 292.000 274.111,292.139 273.600,292.600 273.600 C 292.930 273.600,293.200 273.330,293.200 273.000 C 293.200 272.667,293.556 272.400,294.000 272.400 C 294.533 272.400,294.800 272.133,294.800 271.600 C 294.800 270.834,295.067 270.800,301.000 270.800 C 306.244 270.800,307.200 270.708,307.200 270.200 C 307.200 269.695,308.089 269.600,312.800 269.600 C 318.133 269.600,318.400 269.562,318.400 268.800 C 318.400 268.038,318.667 268.000,324.000 268.000 C 328.711 268.000,329.600 267.905,329.600 267.400 C 329.600 266.896,330.471 266.800,335.037 266.800 C 340.138 266.800,340.488 266.751,340.684 266.000 C 340.878 265.257,341.230 265.200,345.647 265.200 C 349.605 265.200,350.400 265.100,350.400 264.600 C 350.400 264.105,351.133 264.000,354.600 264.000 C 358.533 264.000,358.800 263.949,358.800 263.200 C 358.800 262.451,359.067 262.400,363.000 262.400 C 366.467 262.400,367.200 262.295,367.200 261.800 C 367.200 261.313,367.849 261.200,370.637 261.200 C 373.738 261.200,374.095 261.122,374.284 260.400 C 374.466 259.705,374.830 259.600,377.047 259.600 C 379.050 259.600,379.600 259.471,379.600 259.000 C 379.600 258.581,380.022 258.400,381.000 258.400 C 382.133 258.400,382.400 258.248,382.400 257.600 C 382.400 257.067,382.667 256.800,383.200 256.800 C 383.644 256.800,384.000 256.533,384.000 256.200 C 384.000 255.870,384.270 255.600,384.600 255.600 C 384.933 255.600,385.200 255.244,385.200 254.800 C 385.200 254.267,385.467 254.000,386.000 254.000 C 386.444 254.000,386.800 253.733,386.800 253.400 C 386.800 253.070,387.070 252.800,387.400 252.800 C 387.861 252.800,388.000 252.289,388.000 250.600 C 388.000 248.667,388.097 248.400,388.800 248.400 C 389.524 248.400,389.600 248.133,389.600 245.600 C 389.600 243.378,389.724 242.800,390.200 242.800 C 390.700 242.800,390.800 242.000,390.800 238.000 C 390.800 233.467,390.844 233.200,391.600 233.200 C 392.366 233.200,392.400 232.933,392.400 227.000 C 392.400 221.756,392.492 220.800,393.000 220.800 C 393.522 220.800,393.600 218.978,393.600 206.800 C 393.600 193.067,393.615 192.800,394.400 192.800 C 395.176 192.800,395.200 192.533,395.200 183.800 C 395.200 175.067,395.176 174.800,394.400 174.800 C 393.614 174.800,393.600 174.533,393.600 159.600 C 393.600 146.356,393.523 144.400,393.000 144.400 C 392.490 144.400,392.400 143.356,392.400 137.400 C 392.400 130.667,392.370 130.400,391.600 130.400 C 390.859 130.400,390.800 130.133,390.800 126.800 C 390.800 123.867,390.689 123.200,390.200 123.200 C 389.747 123.200,389.600 122.711,389.600 121.200 C 389.600 119.467,389.493 119.200,388.800 119.200 C 388.152 119.200,388.000 118.933,388.000 117.800 C 388.000 116.822,387.819 116.400,387.400 116.400 C 387.067 116.400,386.800 116.044,386.800 115.600 C 386.800 115.067,386.533 114.800,386.000 114.800 C 385.556 114.800,385.200 114.533,385.200 114.200 C 385.200 113.870,384.930 113.600,384.600 113.600 C 384.267 113.600,384.000 113.244,384.000 112.800 C 384.000 112.267,383.733 112.000,383.200 112.000 C 382.756 112.000,382.400 111.733,382.400 111.400 C 382.400 110.981,381.978 110.800,381.000 110.800 C 380.022 110.800,379.600 110.619,379.600 110.200 C 379.600 109.747,379.111 109.600,377.600 109.600 C 375.867 109.600,375.600 109.493,375.600 108.800 C 375.600 108.044,375.333 108.000,370.800 108.000 C 366.800 108.000,366.000 107.900,366.000 107.400 C 366.000 106.895,365.111 106.800,360.400 106.800 C 355.067 106.800,354.800 106.762,354.800 106.000 C 354.800 105.230,354.533 105.200,347.800 105.200 C 341.844 105.200,340.800 105.110,340.800 104.600 C 340.800 104.088,339.694 104.000,333.247 104.000 C 326.030 104.000,325.684 103.964,325.484 103.200 C 325.283 102.433,324.938 102.400,317.037 102.400 C 309.982 102.400,308.800 102.314,308.800 101.800 C 308.800 101.295,307.911 101.200,303.200 101.200 C 297.867 101.200,297.600 101.162,297.600 100.400 C 297.600 99.676,297.333 99.600,294.800 99.600 L 292.000 99.600 292.000 94.800 C 292.000 90.267,291.956 90.000,291.200 90.000 C 290.427 90.000,290.400 89.733,290.400 82.200 C 290.400 75.533,290.313 74.400,289.800 74.400 C 289.292 74.400,289.200 73.444,289.200 68.200 C 289.200 62.956,289.108 62.000,288.600 62.000 C 288.100 62.000,288.000 61.200,288.000 57.200 C 288.000 52.667,287.956 52.400,287.200 52.400 C 286.443 52.400,286.400 52.133,286.400 47.400 C 286.400 43.222,286.301 42.400,285.800 42.400 C 285.300 42.400,285.200 41.600,285.200 37.600 C 285.200 33.067,285.156 32.800,284.400 32.800 C 283.651 32.800,283.600 32.533,283.600 28.600 C 283.600 25.133,283.495 24.400,283.000 24.400 C 282.514 24.400,282.400 23.756,282.400 21.000 C 282.400 17.867,282.337 17.600,281.600 17.600 C 280.952 17.600,280.800 17.333,280.800 16.200 C 280.800 15.222,280.619 14.800,280.200 14.800 C 279.870 14.800,279.600 14.513,279.600 14.163 C 279.600 13.812,279.240 13.431,278.800 13.316 C 278.360 13.201,278.000 12.858,278.000 12.553 C 278.000 12.188,277.525 12.000,276.600 12.000 C 275.467 12.000,275.200 11.848,275.200 11.200 C 275.200 10.507,274.933 10.400,273.200 10.400 C 271.689 10.400,271.200 10.253,271.200 9.800 C 271.200 9.325,270.627 9.200,268.447 9.200 C 266.030 9.200,265.668 9.102,265.484 8.400 C 265.289 7.656,264.938 7.600,260.437 7.600 C 256.404 7.600,255.600 7.500,255.600 7.000 C 255.600 6.486,254.427 6.400,247.447 6.400 C 239.630 6.400,239.285 6.367,239.084 5.600 C 238.754 4.337,162.846 4.337,162.516 5.600 M238.200 28.383 C 243.232 28.866,251.345 29.762,256.578 30.412 C 270.997 32.206,273.987 35.249,275.624 49.800 C 275.847 51.780,276.214 54.480,276.440 55.800 C 276.666 57.120,277.102 60.180,277.409 62.600 C 277.717 65.020,278.340 69.610,278.796 72.800 C 279.773 79.650,280.145 82.618,281.206 92.067 C 281.643 95.954,282.087 99.374,282.193 99.667 C 282.300 99.960,282.557 102.057,282.765 104.327 C 283.345 110.656,283.525 110.772,294.000 111.591 C 296.970 111.823,300.660 112.186,302.200 112.398 C 303.740 112.609,307.160 112.976,309.800 113.212 C 328.712 114.902,339.265 115.955,341.400 116.365 C 342.500 116.576,344.840 116.865,346.600 117.008 C 364.305 118.443,368.545 120.923,370.858 131.194 C 373.838 144.423,374.488 152.591,374.696 179.400 C 374.859 200.470,374.181 216.173,372.832 222.552 C 372.640 223.458,372.361 225.528,372.212 227.151 C 372.063 228.774,371.777 230.533,371.577 231.061 C 371.376 231.589,371.019 233.231,370.783 234.710 C 369.238 244.381,366.405 247.596,357.800 249.441 C 352.574 250.561,347.010 251.603,344.000 252.026 C 342.350 252.257,340.460 252.606,339.800 252.800 C 339.140 252.995,336.170 253.450,333.200 253.812 C 330.230 254.175,325.190 254.796,322.000 255.193 C 318.810 255.590,314.850 256.032,313.200 256.176 C 309.338 256.512,301.303 257.473,296.200 258.210 C 294.000 258.527,291.120 258.905,289.800 259.048 C 288.480 259.192,287.076 259.476,286.679 259.680 C 285.316 260.381,282.187 258.938,279.791 256.503 C 276.265 252.921,276.598 252.368,282.970 251.226 C 296.176 248.859,304.032 240.041,305.620 225.801 C 306.277 219.911,305.071 216.013,302.589 216.002 C 298.900 215.985,292.626 209.145,291.383 203.783 C 290.451 199.766,287.486 195.832,278.298 186.426 C 268.413 176.305,267.959 175.584,265.599 166.217 C 264.037 160.021,263.333 158.400,262.205 158.400 C 260.175 158.400,250.400 167.242,250.400 169.078 C 250.400 170.361,254.388 168.827,256.860 166.593 C 257.708 165.827,258.547 165.200,258.725 165.200 C 259.571 165.200,260.431 166.369,260.785 168.000 C 262.887 177.674,263.874 179.386,270.252 184.429 C 272.040 185.843,274.011 187.360,274.631 187.800 C 280.169 191.728,282.529 193.999,284.398 197.200 C 285.819 199.634,286.264 200.815,287.865 206.400 C 289.955 213.687,290.795 214.938,295.819 218.247 C 301.872 222.233,302.697 227.996,298.413 236.371 C 296.983 239.167,290.522 245.195,288.949 245.201 C 288.757 245.202,287.340 245.706,285.800 246.321 C 283.161 247.375,281.458 247.911,273.856 250.082 C 269.888 251.215,269.514 251.868,270.990 255.090 C 271.817 256.898,274.332 260.798,275.187 261.600 C 277.305 263.587,280.796 268.612,280.799 269.678 C 280.800 270.255,279.644 273.327,277.593 278.200 C 277.315 278.860,276.843 279.985,276.544 280.700 C 276.245 281.415,275.741 282.585,275.425 283.300 C 275.109 284.015,274.387 285.724,273.821 287.098 C 272.750 289.697,271.755 291.916,269.146 297.523 C 268.296 299.351,267.600 300.935,267.600 301.043 C 267.600 301.481,256.735 323.296,254.572 327.200 C 232.250 367.499,212.447 388.326,197.633 387.084 C 192.591 386.661,185.072 383.529,182.196 380.653 C 181.837 380.294,181.384 380.000,181.189 380.000 C 180.995 380.000,178.702 377.885,176.095 375.300 C 169.126 368.391,163.020 360.449,155.413 348.400 C 154.371 346.750,153.177 344.912,152.759 344.316 C 152.342 343.720,152.000 343.149,152.000 343.048 C 152.000 342.946,151.074 341.274,149.941 339.332 C 147.984 335.973,139.677 319.597,137.447 314.700 C 133.286 305.560,132.647 304.116,131.830 302.000 C 131.448 301.010,130.814 299.480,130.421 298.600 C 130.028 297.720,129.437 296.280,129.107 295.400 C 128.778 294.520,127.584 291.437,126.454 288.550 C 125.324 285.662,124.400 283.185,124.400 283.046 C 124.400 282.906,124.047 282.028,123.616 281.096 C 120.242 273.801,119.630 266.074,121.992 260.600 C 123.285 257.604,123.125 257.884,127.833 250.340 C 130.446 246.154,132.572 242.375,135.788 236.200 C 136.475 234.880,137.524 233.039,138.119 232.108 C 138.714 231.177,139.200 230.336,139.200 230.238 C 139.200 230.140,140.310 228.111,141.666 225.730 C 146.688 216.912,147.644 214.470,148.039 209.462 C 148.650 201.713,148.662 201.683,153.308 196.682 C 157.714 191.940,158.473 191.459,162.600 190.800 C 167.478 190.021,168.719 188.821,165.786 187.721 C 156.314 184.168,146.968 186.791,135.800 196.135 C 125.012 205.162,112.032 202.895,104.110 190.600 C 103.401 189.500,102.636 188.383,102.411 188.117 C 102.185 187.851,102.000 187.524,102.000 187.390 C 102.000 186.222,98.658 182.982,96.800 182.349 C 93.329 181.167,91.334 179.146,92.231 177.724 C 93.858 175.144,98.498 174.589,101.103 176.662 C 104.110 179.056,105.205 177.887,103.000 174.638 C 101.967 173.115,101.696 171.127,102.407 170.283 C 102.631 170.017,104.198 168.000,105.890 165.800 C 107.581 163.600,109.064 161.710,109.185 161.600 C 109.718 161.114,112.767 156.825,113.830 155.064 C 116.081 151.338,116.381 150.803,117.618 148.311 C 118.304 146.930,119.003 145.530,119.173 145.200 C 119.343 144.870,119.977 142.917,120.582 140.861 C 121.835 136.602,121.701 136.165,119.195 136.346 C 117.617 136.460,117.600 136.446,117.600 135.063 C 117.600 133.651,118.552 129.277,119.181 127.800 C 119.369 127.360,119.915 125.978,120.396 124.728 C 127.423 106.464,162.468 88.810,181.008 94.196 C 187.414 96.057,190.912 97.456,198.200 101.071 C 201.500 102.708,205.541 104.418,207.179 104.870 C 210.337 105.741,209.938 105.742,221.761 104.834 C 231.301 104.101,234.070 104.988,242.041 111.331 C 254.524 121.265,254.882 122.637,248.828 137.319 C 245.726 144.843,244.675 147.018,242.944 149.498 C 241.985 150.872,241.200 152.107,241.200 152.243 C 241.200 152.378,240.447 153.414,239.527 154.544 C 229.575 166.772,219.362 163.492,214.788 146.600 C 214.609 145.940,213.990 144.140,213.412 142.600 C 212.833 141.060,212.197 139.290,211.998 138.666 C 210.121 132.784,197.143 122.708,193.329 124.172 C 192.475 124.500,192.463 124.490,198.400 128.774 C 205.428 133.846,205.852 134.720,206.373 145.200 C 206.916 156.135,207.642 157.571,215.776 163.800 C 217.499 165.120,220.005 167.095,221.343 168.188 C 227.334 173.082,228.273 172.762,239.040 162.156 C 245.831 155.467,246.009 155.198,253.367 140.548 C 262.921 121.524,262.910 121.458,248.312 109.974 C 236.456 100.648,235.022 100.026,222.600 98.812 C 215.618 98.129,208.707 96.635,204.000 94.790 C 202.790 94.315,201.080 93.682,200.200 93.383 C 196.686 92.186,194.963 91.561,194.200 91.207 C 177.806 83.599,163.196 84.957,143.000 95.965 C 141.240 96.924,139.516 97.954,139.169 98.254 C 138.821 98.554,138.384 98.800,138.196 98.800 C 137.162 98.800,127.949 105.696,124.090 109.359 C 115.257 117.742,112.345 124.174,112.017 136.022 L 111.800 143.844 110.324 146.822 C 107.247 153.032,97.844 166.266,92.253 172.255 C 87.680 177.154,87.604 178.030,91.381 182.400 C 92.427 183.610,93.718 185.277,94.249 186.105 C 94.781 186.933,95.472 187.923,95.784 188.305 C 96.097 188.687,97.218 190.282,98.276 191.850 C 105.307 202.265,111.884 206.000,123.193 206.000 C 129.524 206.000,131.188 205.401,135.548 201.555 C 143.188 194.815,145.678 193.957,144.365 198.517 C 144.161 199.223,143.811 201.420,143.586 203.400 C 141.913 218.119,136.475 230.446,124.528 246.600 C 122.132 249.840,117.764 256.510,116.797 258.406 C 115.734 260.489,115.510 260.579,111.605 260.474 C 108.284 260.384,89.684 258.612,87.897 258.214 C 87.404 258.105,84.840 257.826,82.200 257.596 C 79.560 257.365,76.320 257.005,75.000 256.796 C 73.680 256.586,71.070 256.231,69.200 256.007 C 59.092 254.796,55.854 254.357,55.530 254.156 C 55.332 254.034,53.242 253.687,50.885 253.384 C 34.019 251.220,31.442 248.270,29.583 229.000 C 29.370 226.800,29.011 223.470,28.784 221.600 C 26.957 206.534,26.763 168.447,28.439 154.000 C 32.412 119.758,33.007 118.855,53.600 115.823 C 55.690 115.515,59.020 114.975,61.000 114.623 C 62.980 114.271,67.818 113.623,71.751 113.184 C 75.684 112.744,79.040 112.299,79.209 112.194 C 79.378 112.090,82.190 111.817,85.458 111.588 C 88.726 111.359,92.480 111.008,93.800 110.809 C 95.120 110.609,98.630 110.254,101.600 110.021 C 104.570 109.787,108.170 109.420,109.600 109.205 C 111.030 108.991,113.058 108.710,114.108 108.582 C 117.090 108.217,117.208 107.882,118.590 95.800 C 119.394 88.780,120.358 81.563,120.590 80.831 C 120.701 80.480,121.081 78.305,121.434 75.997 C 122.855 66.707,123.990 60.466,124.998 56.400 C 125.298 55.190,125.919 52.490,126.378 50.400 C 129.342 36.900,131.419 33.950,139.493 31.771 C 145.266 30.212,159.714 28.486,171.200 27.982 C 180.651 27.568,232.964 27.881,238.200 28.383 M240.134 167.226 C 236.561 168.993,229.711 177.651,227.203 183.568 C 224.875 189.062,224.685 189.359,219.509 195.571 C 210.784 206.043,207.835 211.350,203.936 223.600 C 202.851 227.010,201.700 230.610,201.380 231.600 C 201.059 232.590,200.797 233.741,200.798 234.158 C 200.799 234.575,200.448 236.465,200.017 238.358 C 199.586 240.251,198.967 243.240,198.641 245.000 C 198.314 246.760,197.767 249.644,197.424 251.409 C 196.656 255.360,196.645 256.422,197.360 257.868 C 199.338 261.872,199.800 262.693,200.528 263.500 C 202.013 265.147,202.385 264.084,203.427 255.200 C 203.749 252.450,204.189 249.210,204.404 248.000 C 204.619 246.790,204.982 244.450,205.210 242.800 C 206.164 235.904,206.801 231.921,207.004 231.594 C 207.122 231.403,207.405 230.201,207.634 228.923 C 208.100 226.310,210.545 218.066,211.425 216.140 C 211.741 215.446,212.000 214.779,212.000 214.657 C 212.000 212.348,217.505 204.191,222.556 199.016 C 224.880 196.635,226.896 194.308,227.036 193.844 C 228.670 188.418,237.302 175.991,239.888 175.342 C 241.105 175.037,241.626 175.523,243.553 178.768 C 248.007 186.264,252.576 185.881,249.575 178.263 C 245.490 167.896,243.494 165.563,240.134 167.226 " stroke="none" fill="#1e73be" fill-rule="evenodd"></path><path id="path1" d="M171.200 27.982 C 167.570 28.141,162.530 28.491,160.000 28.760 C 131.630 31.769,130.278 32.639,126.378 50.400 C 125.919 52.490,125.298 55.190,124.998 56.400 C 123.990 60.466,122.855 66.707,121.434 75.997 C 121.081 78.305,120.701 80.480,120.590 80.831 C 120.358 81.563,119.394 88.780,118.590 95.800 C 117.208 107.882,117.090 108.217,114.108 108.582 C 113.058 108.710,111.030 108.991,109.600 109.205 C 108.170 109.420,104.570 109.787,101.600 110.021 C 98.630 110.254,95.120 110.609,93.800 110.809 C 92.480 111.008,88.726 111.359,85.458 111.588 C 82.190 111.817,79.378 112.090,79.209 112.194 C 79.040 112.299,75.684 112.744,71.751 113.184 C 67.818 113.623,62.980 114.271,61.000 114.623 C 59.020 114.975,55.690 115.515,53.600 115.823 C 35.947 118.422,33.148 120.903,30.766 136.060 C 29.987 141.014,29.593 144.050,28.439 154.000 C 26.763 168.447,26.957 206.534,28.784 221.600 C 29.011 223.470,29.370 226.800,29.583 229.000 C 31.442 248.270,34.019 251.220,50.885 253.384 C 53.242 253.687,55.332 254.034,55.530 254.156 C 55.854 254.357,59.092 254.796,69.200 256.007 C 71.070 256.231,73.680 256.586,75.000 256.796 C 76.320 257.005,79.560 257.365,82.200 257.596 C 84.840 257.826,87.404 258.105,87.897 258.214 C 89.684 258.612,108.284 260.384,111.605 260.474 C 115.510 260.579,115.734 260.489,116.797 258.406 C 117.764 256.510,122.132 249.840,124.528 246.600 C 136.475 230.446,141.913 218.119,143.586 203.400 C 143.811 201.420,144.161 199.223,144.365 198.517 C 145.678 193.957,143.188 194.815,135.548 201.555 C 131.188 205.401,129.524 206.000,123.193 206.000 C 111.884 206.000,105.307 202.265,98.276 191.850 C 97.218 190.282,96.097 188.687,95.784 188.305 C 95.472 187.923,94.781 186.933,94.249 186.105 C 93.718 185.277,92.427 183.610,91.381 182.400 C 87.604 178.030,87.680 177.154,92.253 172.255 C 97.844 166.266,107.247 153.032,110.324 146.822 L 111.800 143.844 112.017 136.022 C 112.345 124.174,115.257 117.742,124.090 109.359 C 127.949 105.696,137.162 98.800,138.196 98.800 C 138.384 98.800,138.821 98.554,139.169 98.254 C 139.516 97.954,141.240 96.924,143.000 95.965 C 163.196 84.957,177.806 83.599,194.200 91.207 C 194.963 91.561,196.686 92.186,200.200 93.383 C 201.080 93.682,202.790 94.315,204.000 94.790 C 208.707 96.635,215.618 98.129,222.600 98.812 C 235.022 100.026,236.456 100.648,248.312 109.974 C 262.910 121.458,262.921 121.524,253.367 140.548 C 246.009 155.198,245.831 155.467,239.040 162.156 C 228.273 172.762,227.334 173.082,221.343 168.188 C 220.005 167.095,217.499 165.120,215.776 163.800 C 207.642 157.571,206.916 156.135,206.373 145.200 C 205.852 134.720,205.428 133.846,198.400 128.774 C 192.463 124.490,192.475 124.500,193.329 124.172 C 197.143 122.708,210.121 132.784,211.998 138.666 C 212.197 139.290,212.833 141.060,213.412 142.600 C 213.990 144.140,214.609 145.940,214.788 146.600 C 219.362 163.492,229.575 166.772,239.527 154.544 C 240.447 153.414,241.200 152.378,241.200 152.243 C 241.200 152.107,241.985 150.872,242.944 149.498 C 244.675 147.018,245.726 144.843,248.828 137.319 C 254.882 122.637,254.524 121.265,242.041 111.331 C 234.070 104.988,231.301 104.101,221.761 104.834 C 209.938 105.742,210.337 105.741,207.179 104.870 C 205.541 104.418,201.500 102.708,198.200 101.071 C 190.912 97.456,187.414 96.057,181.008 94.196 C 162.468 88.810,127.423 106.464,120.396 124.728 C 119.915 125.978,119.369 127.360,119.181 127.800 C 118.552 129.277,117.600 133.651,117.600 135.063 C 117.600 136.446,117.617 136.460,119.195 136.346 C 121.701 136.165,121.835 136.602,120.582 140.861 C 119.977 142.917,119.343 144.870,119.173 145.200 C 119.003 145.530,118.304 146.930,117.618 148.311 C 116.381 150.803,116.081 151.338,113.830 155.064 C 112.767 156.825,109.718 161.114,109.185 161.600 C 109.064 161.710,107.581 163.600,105.890 165.800 C 104.198 168.000,102.631 170.017,102.407 170.283 C 101.696 171.127,101.967 173.115,103.000 174.638 C 105.205 177.887,104.110 179.056,101.103 176.662 C 98.498 174.589,93.858 175.144,92.231 177.724 C 91.334 179.146,93.329 181.167,96.800 182.349 C 98.658 182.982,102.000 186.222,102.000 187.390 C 102.000 187.524,102.185 187.851,102.411 188.117 C 102.636 188.383,103.401 189.500,104.110 190.600 C 112.032 202.895,125.012 205.162,135.800 196.135 C 146.968 186.791,156.314 184.168,165.786 187.721 C 168.719 188.821,167.478 190.021,162.600 190.800 C 158.473 191.459,157.714 191.940,153.308 196.682 C 148.662 201.683,148.650 201.713,148.039 209.462 C 147.644 214.470,146.688 216.912,141.666 225.730 C 140.310 228.111,139.200 230.140,139.200 230.238 C 139.200 230.336,138.714 231.177,138.119 232.108 C 137.524 233.039,136.475 234.880,135.788 236.200 C 132.572 242.375,130.446 246.154,127.833 250.340 C 123.125 257.884,123.285 257.604,121.992 260.600 C 119.630 266.074,120.242 273.801,123.616 281.096 C 124.047 282.028,124.400 282.906,124.400 283.046 C 124.400 283.185,125.324 285.662,126.454 288.550 C 127.584 291.437,128.778 294.520,129.107 295.400 C 129.437 296.280,130.028 297.720,130.421 298.600 C 130.814 299.480,131.448 301.010,131.830 302.000 C 132.647 304.116,133.286 305.560,137.447 314.700 C 139.677 319.597,147.984 335.973,149.941 339.332 C 151.074 341.274,152.000 342.946,152.000 343.048 C 152.000 343.149,152.342 343.720,152.759 344.316 C 153.177 344.912,154.371 346.750,155.413 348.400 C 163.020 360.449,169.126 368.391,176.095 375.300 C 178.702 377.885,180.995 380.000,181.189 380.000 C 181.384 380.000,181.837 380.294,182.196 380.653 C 185.072 383.529,192.591 386.661,197.633 387.084 C 210.091 388.128,227.066 372.610,244.761 344.000 C 247.119 340.187,252.155 331.564,254.572 327.200 C 256.735 323.296,267.600 301.481,267.600 301.043 C 267.600 300.935,268.296 299.351,269.146 297.523 C 271.755 291.916,272.750 289.697,273.821 287.098 C 274.387 285.724,275.109 284.015,275.425 283.300 C 275.741 282.585,276.245 281.415,276.544 280.700 C 276.843 279.985,277.315 278.860,277.593 278.200 C 279.644 273.327,280.800 270.255,280.799 269.678 C 280.796 268.612,277.305 263.587,275.187 261.600 C 274.332 260.798,271.817 256.898,270.990 255.090 C 269.514 251.868,269.888 251.215,273.856 250.082 C 281.458 247.911,283.161 247.375,285.800 246.321 C 287.340 245.706,288.757 245.202,288.949 245.201 C 290.522 245.195,296.983 239.167,298.413 236.371 C 302.697 227.996,301.872 222.233,295.819 218.247 C 290.795 214.938,289.955 213.687,287.865 206.400 C 286.264 200.815,285.819 199.634,284.398 197.200 C 282.529 193.999,280.169 191.728,274.631 187.800 C 268.261 183.282,264.870 179.979,263.342 176.803 C 262.377 174.798,261.922 173.229,260.785 168.000 C 260.431 166.369,259.571 165.200,258.725 165.200 C 258.547 165.200,257.708 165.827,256.860 166.593 C 254.388 168.827,250.400 170.361,250.400 169.078 C 250.400 167.242,260.175 158.400,262.205 158.400 C 263.333 158.400,264.037 160.021,265.599 166.217 C 267.959 175.584,268.413 176.305,278.298 186.426 C 287.486 195.832,290.451 199.766,291.383 203.783 C 292.626 209.145,298.900 215.985,302.589 216.002 C 305.071 216.013,306.277 219.911,305.620 225.801 C 304.032 240.041,296.176 248.859,282.970 251.226 C 276.598 252.368,276.265 252.921,279.791 256.503 C 282.187 258.938,285.316 260.381,286.679 259.680 C 287.076 259.476,288.480 259.192,289.800 259.048 C 291.120 258.905,294.000 258.527,296.200 258.210 C 301.303 257.473,309.338 256.512,313.200 256.176 C 314.850 256.032,318.810 255.590,322.000 255.193 C 325.190 254.796,330.230 254.175,333.200 253.812 C 336.170 253.450,339.140 252.995,339.800 252.800 C 340.460 252.606,342.350 252.257,344.000 252.026 C 347.010 251.603,352.574 250.561,357.800 249.441 C 366.405 247.596,369.238 244.381,370.783 234.710 C 371.019 233.231,371.376 231.589,371.577 231.061 C 371.777 230.533,372.063 228.774,372.212 227.151 C 372.361 225.528,372.640 223.458,372.832 222.552 C 374.181 216.173,374.859 200.470,374.696 179.400 C 374.488 152.591,373.838 144.423,370.858 131.194 C 368.545 120.923,364.305 118.443,346.600 117.008 C 344.840 116.865,342.500 116.576,341.400 116.365 C 339.265 115.955,328.712 114.902,309.800 113.212 C 307.160 112.976,303.740 112.609,302.200 112.398 C 300.660 112.186,296.970 111.823,294.000 111.591 C 283.525 110.772,283.345 110.656,282.765 104.327 C 282.557 102.057,282.300 99.960,282.193 99.667 C 282.087 99.374,281.643 95.954,281.206 92.067 C 280.145 82.618,279.773 79.650,278.796 72.800 C 278.340 69.610,277.717 65.020,277.409 62.600 C 277.102 60.180,276.666 57.120,276.440 55.800 C 276.214 54.480,275.847 51.780,275.624 49.800 C 273.987 35.249,270.997 32.206,256.578 30.412 C 251.345 29.762,243.232 28.866,238.200 28.383 C 232.964 27.881,180.651 27.568,171.200 27.982 M244.683 168.266 C 246.566 170.438,250.938 180.847,250.730 182.663 C 250.373 185.781,246.457 183.656,243.553 178.768 C 241.626 175.523,241.105 175.037,239.888 175.342 C 237.302 175.991,228.670 188.418,227.036 193.844 C 226.896 194.308,224.880 196.635,222.556 199.016 C 217.505 204.191,212.000 212.348,212.000 214.657 C 212.000 214.779,211.741 215.446,211.425 216.140 C 210.545 218.066,208.100 226.310,207.634 228.923 C 207.405 230.201,207.122 231.403,207.004 231.594 C 206.801 231.921,206.164 235.904,205.210 242.800 C 204.982 244.450,204.619 246.790,204.404 248.000 C 204.189 249.210,203.749 252.450,203.427 255.200 C 202.385 264.084,202.013 265.147,200.528 263.500 C 199.800 262.693,199.338 261.872,197.360 257.868 C 196.645 256.422,196.656 255.360,197.424 251.409 C 197.767 249.644,198.314 246.760,198.641 245.000 C 198.967 243.240,199.586 240.251,200.017 238.358 C 200.448 236.465,200.799 234.575,200.798 234.158 C 200.797 233.741,201.059 232.590,201.380 231.600 C 201.700 230.610,202.851 227.010,203.936 223.600 C 207.835 211.350,210.784 206.043,219.509 195.571 C 224.685 189.359,224.875 189.062,227.203 183.568 C 229.711 177.651,236.561 168.993,240.134 167.226 C 241.954 166.325,243.259 166.624,244.683 168.266 " stroke="none" fill="#fbfbfc" fill-rule="evenodd"></path></g></svg>